#!OML:ASF H:\Martial Arts Walks\Project 1\Capture day 1\Session 1\male.ASF
:FULLY-SPECIFIED
:DEGREES
1384
root -0.977689 14.0137 -5.94001 4.66784 -28.7658 -7.40775
lowerback 16.2478 1.29762 -1.12078
upperback 0.631641 1.74561 2.92673
thorax -8.58416 0.94051 3.38659
lowerneck -1.07384 6.21391 0.462287
upperneck 0.713236 8.26904 0.96377
head 0.365303 4.13987 0.266311
rclavicle 2.25869e-014 8.15017e-015
rhumerus -64.4337 19.4251 -85.3448
rradius 98.8737
rwrist -48.545
rhand 3.08729 -16.6287
rfingers 7.12502
rthumb 28.544 -44.47
lclavicle 2.25869e-014 8.15017e-015
lhumerus 2.3224 -5.34442 68.0994
lradius 38.6143
lwrist -24.2308
lhand -17.8214 31.8166
lfingers 7.12502
lthumb 8.44267 61.6279
rfemur -13.4259 5.18646 7.31498
rtibia 73.4767
rfoot -27.0286 -11.2546
rtoes -31.531
lfemur -58.3341 17.2445 -3.98398
ltibia 59.4017
lfoot 8.48579 2.14683
ltoes -9.47138
1385
root -1.01053 14.0271 -6.07638 4.2743 -28.3769 -7.08758
lowerback 16.3756 1.32375 -1.13806
upperback 0.683983 1.76655 2.81808
thorax -8.5968 0.948193 3.2725
lowerneck -1.02205 6.07161 0.367679
upperneck 0.678106 8.08153 0.962481
head 0.343075 4.04566 0.276848
rclavicle -3.32219e-014 -1.88845e-015
rhumerus -63.2339 19.2373 -84.4838
rradius 97.8854
rwrist -48.6892
rhand 1.98624 -17.7952
rfingers 7.12502
rthumb 27.4914 -45.8085
lclavicle -3.32219e-014 -1.88845e-015
lhumerus 1.13397 -5.48532 68.3397
lradius 40.3905
lwrist -22.7466
lhand -17.4744 32.0592
lfingers 7.12502
lthumb 8.77757 61.8566
rfemur -13.9415 5.67986 7.55166
rtibia 74.1566
rfoot -27.2453 -11.1546
rtoes -31.9197
lfemur -57.698 16.3566 -3.73294
ltibia 57.9147
lfoot 9.5568 2.2748
ltoes -9.09585
1386
root -1.04569 14.0448 -6.219 3.90035 -27.9881 -6.78018
lowerback 16.4711 1.35443 -1.15473
upperback 0.738536 1.79479 2.72494
thorax -8.58981 0.959537 3.17333
lowerneck -0.95338 5.93613 0.236482
upperneck 0.645701 7.90365 0.94692
head 0.318268 3.95612 0.288538
rclavicle -1.21259e-014 -3.08116e-014
rhumerus -61.9736 19.0996 -83.6376
rradius 96.8591
rwrist -48.9148
rhand 0.8056 -19.0139
rfingers 7.12502
rthumb 26.3618 -47.2015
lclavicle -1.21259e-014 -3.08116e-014
lhumerus -0.214652 -5.56002 68.645
lradius 42.341
lwrist -21.0367
lhand -17.0993 32.2623
lfingers 7.12502
lthumb 9.13952 62.0442
rfemur -14.3966 6.15084 7.84473
rtibia 74.7067
rfoot -27.3993 -11.2083
rtoes -32.3734
lfemur -56.9939 15.4616 -3.44819
ltibia 56.2711
lfoot 10.7021 2.42473
ltoes -8.54586
1387
root -1.08314 14.0664 -6.36741 3.54753 -27.6028 -6.50643
lowerback 16.5322 1.39867 -1.14444
upperback 0.805843 1.84657 2.64298
thorax -8.55066 0.980934 3.06553
lowerneck -0.887097 5.79387 0.0912664
upperneck 0.612829 7.71669 0.926374
head 0.293656 3.86202 0.301177
rclavicle -2.41648e-014 1.75924e-014
rhumerus -60.6357 18.9613 -82.7937
rradius 95.7841
rwrist -49.1789
rhand -0.363675 -20.2549
rfingers 7.12502
rthumb 25.242 -48.6053
lclavicle -2.41648e-014 1.75924e-014
lhumerus -1.69273 -5.61226 69.0101
lradius 44.4604
lwrist -19.0897
lhand -16.7012 32.4733
lfingers 7.12502
lthumb 9.52367 62.2381
rfemur -14.7719 6.61379 8.21916
rtibia 75.1283
rfoot -27.4899 -11.4067
rtoes -32.8775
lfemur -56.2052 14.553 -3.10084
ltibia 54.4656
lfoot 11.9228 2.60955
ltoes -7.77779
1388
root -1.12302 14.0917 -6.52119 3.22028 -27.2324 -6.28558
lowerback 16.555 1.45881 -1.09873
upperback 0.89102 1.92697 2.57789
thorax -8.47173 1.01458 2.94939
lowerneck -0.819639 5.64322 -0.0720774
upperneck 0.571059 7.51847 0.913819
head 0.265505 3.7623 0.318986
rclavicle 1.24613e-014 1.58034e-014
rhumerus -59.2074 18.8138 -81.9496
rradius 94.6415
rwrist -49.4308
rhand -1.44651 -21.461
rfingers 7.12502
rthumb 24.2042 -49.9536
lclavicle 1.24613e-014 1.58034e-014
lhumerus -3.29565 -5.62535 69.4371
lradius 46.7345
lwrist -16.9497
lhand -16.2912 32.7267
lfingers 7.12502
lthumb 9.91927 62.473
rfemur -15.0591 7.07605 8.69724
rtibia 75.4181
rfoot -27.5195 -11.7597
rtoes -33.4475
lfemur -55.3137 13.628 -2.66228
ltibia 52.4934
lfoot 13.2189 2.84095
ltoes -6.81366
1389
root -1.16535 14.1202 -6.68051 2.92624 -26.8714 -6.13134
lowerback 16.54 1.53425 -1.00677
upperback 0.995145 2.03725 2.53139
thorax -8.3517 1.06086 2.8206
lowerneck -0.755534 5.4778 -0.250612
upperneck 0.519471 7.30038 0.918002
head 0.234212 3.65272 0.344296
rclavicle 7.12767e-014 -1.7344e-014
rhumerus -57.6753 18.6326 -81.0962
rradius 93.4019
rwrist -49.5912
rhand -2.37709 -22.5996
rfingers 7.12502
rthumb 23.3117 -51.2082
lclavicle 7.12767e-014 -1.7344e-014
lhumerus -4.99716 -5.59188 69.9258
lradius 49.1225
lwrist -14.6927
lhand -15.8608 33.0304
lfingers 7.12502
lthumb 10.3345 62.7565
rfemur -15.2564 7.51614 9.2925
rtibia 75.5739
rfoot -27.4946 -12.3006
rtoes -34.0791
lfemur -54.3184 12.6607 -2.10672
ltibia 50.3472
lfoot 14.5953 3.13601
ltoes -5.68076
1390
root -1.21008 14.1516 -6.84418 2.66681 -26.5321 -6.05331
lowerback 16.4821 1.62873 -0.859672
upperback 1.11954 2.18371 2.50417
thorax -8.18619 1.12273 2.67385
lowerneck -0.69029 5.29215 -0.442404
upperneck 0.455395 7.05506 0.944429
head 0.198312 3.52961 0.378359
rclavicle -1.13792e-013 2.43014e-014
rhumerus -56.0365 18.3998 -80.2289
rradius 92.0369
rwrist -49.5921
rhand -3.10253 -23.6384
rfingers 7.12502
rthumb 22.6156 -52.3336
lclavicle -1.13792e-013 2.43014e-014
lhumerus -6.77117 -5.50794 70.4748
lradius 51.5678
lwrist -12.4197
lhand -15.4324 33.3701
lfingers 7.12502
lthumb 10.7477 63.0751
rfemur -15.3621 7.92806 10.0114
rtibia 75.5914
rfoot -27.4083 -13.0583
rtoes -34.7524
lfemur -53.2041 11.6327 -1.40917
ltibia 48.021
lfoot 16.0128 3.54471
ltoes -4.58904
